<svg xmlns="http://www.w3.org/2000/svg" width="31.552" height="31.552" viewBox="0 0 31.552 31.552">
  <defs>
    <style>
      .cls-1 {
        fill: #777;
      }
    </style>
  </defs>
  <path id="Add" class="cls-1" d="M30.238,77.147H18.405V65.315A1.314,1.314,0,0,0,17.091,64H14.461a1.314,1.314,0,0,0-1.315,1.315V77.147H1.315A1.314,1.314,0,0,0,0,78.461v2.629a1.314,1.314,0,0,0,1.315,1.315H13.147V94.238a1.314,1.314,0,0,0,1.315,1.315h2.629a1.314,1.314,0,0,0,1.315-1.315V82.405H30.238a1.314,1.314,0,0,0,1.315-1.315V78.461A1.314,1.314,0,0,0,30.238,77.147Z" transform="translate(0 -64)"/>
</svg>
