<svg xmlns="http://www.w3.org/2000/svg" width="68" height="68" viewBox="0 0 68 68">
    <defs>
        <style>
            .cls-1{fill:#eee}.cls-2{fill:rgba(109,143,255,.5)}.cls-3{fill:#65b7ff}
        </style>
    </defs>
    <g id="user-regular" transform="translate(18 15)">
        <circle id="Ellipse_44" cx="34" cy="34" r="34" class="cls-1" data-name="Ellipse 44" transform="translate(-18 -15)"/>
        <path id="Path_1" d="M114.263 9.158A9.132 9.132 0 1 1 105.131 0a9.145 9.145 0 0 1 9.132 9.158z" class="cls-2" data-name="Path 1" transform="translate(-89.131)"/>
        <path id="Path_2" d="M22.4 288h-1.193a12.417 12.417 0 0 1-10.414 0H9.6a9.61 9.61 0 0 0-9.6 9.614v2.979a3.431 3.431 0 0 0 3.429 3.434h25.142A3.431 3.431 0 0 0 32 300.592v-2.976A9.61 9.61 0 0 0 22.4 288z" class="cls-3" data-name="Path 2" transform="translate(0 -267.455)"/>
    </g>
</svg>
