<svg xmlns="http://www.w3.org/2000/svg" id="prefix__Building" width="20.724" height="23.684" viewBox="0 0 20.724 23.684">
    <path id="prefix__Path_422" d="M130.405 68.441h-1.85A.555.555 0 0 0 128 69v1.85a.555.555 0 0 0 .555.555h1.85a.555.555 0 0 0 .555-.555V69a.555.555 0 0 0-.555-.559zm0 4.441h-1.85a.555.555 0 0 0-.555.555v1.85a.555.555 0 0 0 .555.555h1.85a.555.555 0 0 0 .555-.555v-1.85a.555.555 0 0 0-.555-.555zm0-8.882h-1.85a.555.555 0 0 0-.555.555v1.85a.555.555 0 0 0 .555.555h1.85a.555.555 0 0 0 .555-.555v-1.85a.555.555 0 0 0-.555-.555zm5.921 0h-1.85a.555.555 0 0 0-.555.555v1.85a.555.555 0 0 0 .555.555h1.85a.555.555 0 0 0 .555-.555v-1.85a.555.555 0 0 0-.555-.555zm0 4.441h-1.85a.555.555 0 0 0-.555.555v1.85a.555.555 0 0 0 .555.555h1.85a.555.555 0 0 0 .555-.555V69a.555.555 0 0 0-.555-.559zm0 4.441h-1.85a.555.555 0 0 0-.555.555v1.85a.555.555 0 0 0 .555.555h1.85a.555.555 0 0 0 .555-.555v-1.85a.555.555 0 0 0-.555-.555z" data-name="Path 422" transform="translate(-122.079 -61.039)" style="fill:#65b7ff"/>
    <path id="prefix__Path_423" d="M20.168 22.2h-.925V1.11A1.11 1.11 0 0 0 18.133 0H2.59a1.11 1.11 0 0 0-1.11 1.11V22.2H.555a.555.555 0 0 0-.555.559v.925h20.724v-.925a.555.555 0 0 0-.555-.555zM5.921 3.516a.555.555 0 0 1 .555-.555h1.85a.555.555 0 0 1 .555.555v1.85a.555.555 0 0 1-.555.555h-1.85a.555.555 0 0 1-.555-.555zm0 4.441a.555.555 0 0 1 .555-.557h1.85a.555.555 0 0 1 .555.555v1.85a.555.555 0 0 1-.555.555h-1.85a.555.555 0 0 1-.555-.555zM8.326 14.8h-1.85a.555.555 0 0 1-.555-.555V12.4a.555.555 0 0 1 .555-.555h1.85a.555.555 0 0 1 .555.555v1.85a.555.555 0 0 1-.555.55zm3.516 7.4h-2.96v-3.882a.555.555 0 0 1 .555-.555h1.85a.555.555 0 0 1 .555.555zm2.958-7.953a.555.555 0 0 1-.555.555H12.4a.555.555 0 0 1-.555-.555V12.4a.555.555 0 0 1 .555-.555h1.85a.555.555 0 0 1 .555.555zm0-4.441a.555.555 0 0 1-.555.555H12.4a.555.555 0 0 1-.555-.555v-1.85A.555.555 0 0 1 12.4 7.4h1.85a.555.555 0 0 1 .555.555zm0-4.441a.555.555 0 0 1-.555.555H12.4a.555.555 0 0 1-.555-.555V3.516a.555.555 0 0 1 .555-.555h1.85a.555.555 0 0 1 .555.555z" data-name="Path 423" style="fill:#adbff7"/>
</svg>
