<svg xmlns="http://www.w3.org/2000/svg" id="Contact" width="21" height="24" viewBox="0 0 21 24">
    <defs>
        <style>
            .cls-1{fill:#adbff7}.cls-2{fill:#65b7ff}
        </style>
    </defs>
    <path id="Path_74" d="M19.5 2.25A2.25 2.25 0 0 0 17.25 0h-15A2.25 2.25 0 0 0 0 2.25v19.5A2.25 2.25 0 0 0 2.25 24h15a2.25 2.25 0 0 0 2.25-2.25zM9.75 6a3 3 0 1 1-3 3 3 3 0 0 1 3-3zM15 17.1a.983.983 0 0 1-1.05.9h-8.4a.983.983 0 0 1-1.05-.9v-.9a2.952 2.952 0 0 1 3.15-2.7h.234a4.828 4.828 0 0 0 3.731 0h.234A2.952 2.952 0 0 1 15 16.2z" class="cls-1" data-name="Path 74"/>
    <path id="Path_75" d="M103.35 105h-.234a4.828 4.828 0 0 1-3.731 0h-.235a2.952 2.952 0 0 0-3.15 2.7v.9a.983.983 0 0 0 1.05.9h8.4a.983.983 0 0 0 1.05-.9v-.9a2.952 2.952 0 0 0-3.15-2.7zm-2.1-1.5a3 3 0 1 0-3-3 3 3 0 0 0 3 3zm10.687-1.5H111v3h.938a.563.563 0 0 0 .563-.563v-1.875a.563.563 0 0 0-.563-.562zm0 6H111v3h.938a.562.562 0 0 0 .563-.562v-1.875a.562.562 0 0 0-.563-.563zm0-12H111v3h.938a.562.562 0 0 0 .563-.562v-1.876a.562.562 0 0 0-.563-.562z" class="cls-2" data-name="Path 75" transform="translate(-91.5 -91.5)"/>
</svg>
