<svg xmlns="http://www.w3.org/2000/svg" id="prefix__Edit" width="64" height="64" viewBox="0 0 64 64">
    <path id="prefix__Rectangle_174" fill="none" d="M0 0H64V64H0z" data-name="Rectangle 174"/>
    <g id="prefix__Edit-2" data-name="Edit" transform="translate(0 2.665)">
        <path id="prefix__Path_70" fill="#adbff7" d="M62.733 6.689l-5.422-5.423a4.346 4.346 0 0 0-6.133 0L47.244 5.2a1.087 1.087 0 0 0 0 1.533l10.023 10.022a1.087 1.087 0 0 0 1.533 0l3.933-3.933a4.346 4.346 0 0 0 0-6.133zM47.5 33.066l-4.444 4.444a1.367 1.367 0 0 0-.389.944v11.312H7.111V14.211h25.533a1.367 1.367 0 0 0 .944-.389l4.444-4.444a1.333 1.333 0 0 0-.943-2.278H5.333A5.333 5.333 0 0 0 0 12.433v39.111a5.333 5.333 0 0 0 5.333 5.333h39.111a5.333 5.333 0 0 0 5.333-5.333V34.011a1.333 1.333 0 0 0-2.278-.944z" data-name="Path 70"/>
        <path id="prefix__Path_71" fill="#65b7ff" d="M196.958 90.59a1.087 1.087 0 0 1 0 1.533l-24.266 24.267-10.311 1.144a2.161 2.161 0 0 1-2.389-2.389l1.144-10.311L185.4 80.568a1.087 1.087 0 0 1 1.533 0z" data-name="Path 71" transform="translate(-142.203 -71.334)"/>
    </g>
</svg>
