<svg xmlns="http://www.w3.org/2000/svg" width="24" height="32" viewBox="0 0 24 32">
    <g>
        <path fill="#3b99eb" d="M24 8h-7a1 1 0 0 1-1-1V0H1.5A1.5 1.5 0 0 0 0 1.492V30.5A1.5 1.5 0 0 0 1.492 32H22.5a1.5 1.5 0 0 0 1.5-1.493zm-6.468 19.881a.75.75 0 0 1-.407.119h-2.181a.75.75 0 0 1-.662-.394C13.056 25.344 12 23.312 12 23.312c-.4.925-.625 1.25-2.287 4.3a.743.743 0 0 1-.656.394H6.875a.75.75 0 0 1-.631-1.156l3.769-5.844-3.769-5.844a.75.75 0 0 1 .631-1.156H9.05a.75.75 0 0 1 .662.394c1.631 3.05 1.25 2.1 2.287 4.281 0 0 .381-.731 2.288-4.281a.75.75 0 0 1 .663-.394h2.175a.746.746 0 0 1 .631 1.15L14 21l3.756 5.844a.75.75 0 0 1-.224 1.037z"/>
        <path fill="#d3e0ff" d="M115.583 6.554L109.409.437A1.522 1.522 0 0 0 108.337 0h-.385v6.991a1 1 0 0 0 1.009 1h7.063v-.382a1.484 1.484 0 0 0-.441-1.055zm-9.649 14.419l3.79-5.836a.738.738 0 0 0 .027-.762.754.754 0 0 0-.664-.386h-2.195a.758.758 0 0 0-.668.393c-1.924 3.545-2.308 4.276-2.308 4.276-1.047-2.178-.662-1.23-2.308-4.276a.758.758 0 0 0-.668-.393h-2.195a.758.758 0 0 0-.665.39.742.742 0 0 0 .028.765l3.8 5.836-3.8 5.836a.742.742 0 0 0-.028.765.758.758 0 0 0 .665.39h2.2a.751.751 0 0 0 .662-.393c1.678-3.046 1.9-3.371 2.308-4.294 0 0 1.066 2.029 2.3 4.288a.758.758 0 0 0 .669.393h2.2a.758.758 0 0 0 .665-.39.742.742 0 0 0-.028-.765z" transform="translate(-92.025)"/>
    </g>
</svg>
