<svg xmlns="http://www.w3.org/2000/svg" width="32" height="32" viewBox="0 0 32 32">
    <g>
        <path fill="none" d="M0 0H32V32H0z" transform="translate(-629 -576) translate(629 576)"/>
        <g>
            <path fill="#d3e0ff" d="M6 20h12v-4H6zM24 8h-7a1 1 0 0 1-1-1V0H1.5A1.5 1.5 0 0 0 0 1.492V30.5A1.5 1.5 0 0 0 1.492 32H22.5a1.5 1.5 0 0 0 1.5-1.493zM4 4.5a.5.5 0 0 1 .5-.5h5a.5.5 0 0 1 .5.5v1a.5.5 0 0 1-.5.5h-5a.5.5 0 0 1-.5-.5zm0 4a.5.5 0 0 1 .5-.5h5a.5.5 0 0 1 .5.5v1a.5.5 0 0 1-.5.5h-5a.5.5 0 0 1-.5-.5zm16 19a.5.5 0 0 1-.5.5h-5a.5.5 0 0 1-.5-.5v-1a.5.5 0 0 1 .5-.5h5a.5.5 0 0 1 .5.5zm0-6.5a1 1 0 0 1-1 1H5a1 1 0 0 1-1-1v-6a1 1 0 0 1 1-1h14a1 1 0 0 1 1 1z" transform="translate(-629 -576) translate(633 576)"/>
            <path fill="#3b99eb" d="M83.562 6.562L77.444.437A1.5 1.5 0 0 0 76.381 0H76v7a1 1 0 0 0 1 1h7v-.381a1.494 1.494 0 0 0-.438-1.056zM79 14H65a1 1 0 0 0-1 1v6a1 1 0 0 0 1 1h14a1 1 0 0 0 1-1v-6a1 1 0 0 0-1-1zm-1 6H66v-4h12zm1.5 6h-5a.5.5 0 0 0-.5.5v1a.5.5 0 0 0 .5.5h5a.5.5 0 0 0 .5-.5v-1a.5.5 0 0 0-.5-.5z" transform="translate(-629 -576) translate(633 576) translate(-60)"/>
        </g>
    </g>
</svg>
