<svg xmlns="http://www.w3.org/2000/svg" width="64" height="64" viewBox="0 0 64 64">
    <g id="prefix__LevelUp" transform="translate(-1659 -585)">
        <path id="prefix__Rectangle_218" fill="none" d="M0 0H64V64H0z" data-name="Rectangle 218" transform="translate(1659 585)"/>
        <g id="prefix__levelup-2" data-name="levelup" transform="translate(1668.99 584.998)">
            <path id="prefix__Path_454" fill="#d4f0c8" d="M8.509 138.07h10.5v-36.586l5-5.4 5 5.4v43.586a3 3 0 0 1-3 3h-24.5a1.5 1.5 0 0 1-1.06-2.56l7-7a1.5 1.5 0 0 1 1.06-.44z" data-name="Path 454" transform="translate(0 -84.068)"/>
            <path id="prefix__Path_455" fill="#a8e090" d="M71.153 22.347L68.4 25.118a2.991 2.991 0 0 1-4.229.016l-.015-.016-.078-.081-12.05-13.025-12.059 13.026c-.025.028-.051.055-.077.081a2.991 2.991 0 0 1-4.229.016.066.066 0 0 0-.016-.016L32.9 22.347a3.028 3.028 0 0 1 0-4.25L49.891.893a.116.116 0 0 0 .018-.018 3.013 3.013 0 0 1 4.244 0l.018.017 16.983 17.2a3.028 3.028 0 0 1 0 4.25z" data-name="Path 455" transform="translate(-28.018)"/>
        </g>
    </g>
</svg>
