<svg xmlns="http://www.w3.org/2000/svg" width="32" height="32" viewBox="0 0 32 32">
    <g id="prefix__Upload" transform="translate(-481 -605) translate(481 605)">
        <path id="prefix__Rectangle_211" fill="none" d="M0 0H32V32H0z" data-name="Rectangle 211"/>
        <g id="prefix__Upload-2" data-name="Upload">
            <path id="prefix__Path_446" fill="#adbff7" d="M30.5 351.92H22v.5a3.5 3.5 0 0 1-3.5 3.5h-5a3.5 3.5 0 0 1-3.5-3.5v-.5H1.5a1.5 1.5 0 0 0-1.5 1.5v7a1.5 1.5 0 0 0 1.5 1.5h29a1.5 1.5 0 0 0 1.5-1.5v-7a1.5 1.5 0 0 0-1.5-1.5zm-7.5 8.25a1.25 1.25 0 1 1 1.25-1.25 1.25 1.25 0 0 1-1.25 1.25zm4 0a1.25 1.25 0 1 1 1.25-1.25 1.25 1.25 0 0 1-1.25 1.25z" data-name="Path 446" transform="translate(0 -329.925)"/>
            <path id="prefix__Path_447" fill="#65b7ff" d="M91.027 22.489v-10.5h-5.482a1.248 1.248 0 0 1-.881-2.132L94.17.345a1.211 1.211 0 0 1 1.706 0l9.512 9.512a1.248 1.248 0 0 1-.881 2.132h-5.48v10.5a1.5 1.5 0 0 1-1.5 1.5h-5a1.5 1.5 0 0 1-1.5-1.5z" data-name="Path 447" transform="translate(-79.027 .007)"/>
        </g>
    </g>
</svg>
