<svg xmlns="http://www.w3.org/2000/svg" width="32" height="32" viewBox="0 0 32 32">
    <g id="User" transform="translate(-147 -584.611)">
        <path id="Rectangle_209" fill="none" d="M0 0H32V32H0z" data-name="Rectangle 209" transform="translate(147 584.611)"/>
        <g id="User-2" data-name="User" transform="translate(148.976 585)">
            <path id="Path_424" fill="#adbff7" d="M111.806 7.9A7.9 7.9 0 1 1 103.9 0a7.9 7.9 0 0 1 7.906 7.9z" data-name="Path 424" transform="translate(-90.073)"/>
            <path id="Path_425" fill="#65b7ff" d="M19.362 288h-1.031a10.749 10.749 0 0 1-9 0H8.3a8.3 8.3 0 0 0-8.3 8.3v2.57a2.964 2.964 0 0 0 2.964 2.964H24.7a2.964 2.964 0 0 0 2.964-2.964v-2.57a8.3 8.3 0 0 0-8.3-8.3z" data-name="Path 425" transform="translate(0 -270.219)"/>
        </g>
    </g>
</svg>
