<svg xmlns="http://www.w3.org/2000/svg" width="32" height="32" viewBox="0 0 32 32">
    <g>
        <path fill="none" d="M0 0h32v32H0z" transform="translate(-299 -617) translate(299 617)"/>
        <g>
            <path fill="#d3e0ff" d="M4.8 102.4a3.2 3.2 0 1 0-3.2-3.2 3.2 3.2 0 0 0 3.2 3.2zm24 1.6h-3.2a3.19 3.19 0 0 0-2.255.93 7.313 7.313 0 0 1 3.755 5.47h3.3a1.6 1.6 0 0 0 1.6-1.6v-1.6a3.2 3.2 0 0 0-3.2-3.2zm-25.6 0a3.2 3.2 0 0 0-3.2 3.2v1.6a1.6 1.6 0 0 0 1.6 1.6h3.3a7.332 7.332 0 0 1 3.76-5.47A3.191 3.191 0 0 0 6.4 104zm24-1.6a3.2 3.2 0 1 0-3.2-3.2 3.2 3.2 0 0 0 3.2 3.2z" transform="translate(-299 -617) translate(299 622) translate(0 -92.8)"/>
            <path fill="#3b99eb" d="M141.44 44.8h-.415a7.732 7.732 0 0 1-6.85 0h-.415a5.761 5.761 0 0 0-5.76 5.76V52a2.4 2.4 0 0 0 2.4 2.4h14.4a2.4 2.4 0 0 0 2.4-2.4v-1.44a5.761 5.761 0 0 0-5.76-5.76zm-3.84-1.6a5.6 5.6 0 1 0-3.961-1.639A5.6 5.6 0 0 0 137.6 43.2z" transform="translate(-299 -617) translate(299 622) translate(-121.6 -32)"/>
        </g>
    </g>
</svg>
