<svg xmlns="http://www.w3.org/2000/svg" id="prefix__Background" width="1920" height="1080" viewBox="0 0 1920 1080">
    <path id="prefix__Rectangle_190" d="M0 0H1920V1080H0z" data-name="Rectangle 190" style="fill:none"/>
    <path id="prefix__Intersection_1" d="M3781.9 1219.364c-4.315-24.322-9.631-49.269-17.81-74.411-38.78-119.188-226.79-74.666-529.09-188.817S3113.53 425.147 2972.381 316.5c-98.316-75.675-440.126-142.531-638.516-176.137h425.606L3939.5 187.812v1031.552z" data-name="Intersection 1" transform="translate(-2020 -139.864)" style="fill:#e0f1ff"/>
    <path id="prefix__Intersection_2" d="M3817.523 1200.832c-8.406-43.481-15.285-90.75-30.5-137.9-38.873-120.489-194.944-59.414-455.567-153.768s-129.974-540.852-254.542-642.287-670.979-144.193-670.979-144.193l19.175-.855H3939.5v1079z" data-name="Intersection 2" transform="translate(-2020 -121.332)" style="fill:#65b7ff"/>
    <path id="prefix__Intersection_3" d="M3895.413 1005.933c-43.354-118.084-198.271-52.143-463.868-136.647s-149.807-531.6-278.733-627.829c-75.188-56.121-294.063-87.495-463.456-103.9H3939.5v1037.629c-14.53-51.337-22.561-110.622-44.087-169.253z" data-name="Intersection 3" transform="translate(-2020 -137.058)" style="fill:#80c4ff"/>
</svg>
