<svg xmlns="http://www.w3.org/2000/svg" xmlns:xlink="http://www.w3.org/1999/xlink" width="53.546" height="66.4" viewBox="0 0 53.546 66.4">
    <defs>
        <style>
            .cls-1{fill:none}.cls-2{fill:url(#linear-gradient)}.cls-3{fill:url(#linear-gradient-2)}.cls-4{fill:url(#linear-gradient-3)}.cls-5{fill:url(#linear-gradient-4)}.cls-6{fill:url(#linear-gradient-5)}.cls-7{fill:url(#linear-gradient-6)}.cls-8{fill:url(#linear-gradient-7)}.cls-9{fill:url(#linear-gradient-8)}.cls-10{fill:url(#linear-gradient-9)}.cls-11{fill:url(#linear-gradient-10)}.cls-12{fill:url(#linear-gradient-11)}.cls-13{fill:url(#linear-gradient-12)}.cls-14{fill:url(#linear-gradient-13)}.cls-15{fill:url(#linear-gradient-14)}.cls-16{fill:url(#linear-gradient-15)}.cls-17{fill:#009fe0}.cls-18{fill:url(#linear-gradient-16)}
        </style>
        <linearGradient id="linear-gradient" x1=".5" x2=".5" y1="2.652" y2="-.973" gradientUnits="objectBoundingBox">
            <stop offset="0" stop-color="#a7004c"/>
            <stop offset=".321" stop-color="#90002f"/>
            <stop offset=".761" stop-color="#76000c"/>
            <stop offset="1" stop-color="#6d0000"/>
        </linearGradient>
        <linearGradient id="linear-gradient-2" x1=".5" x2=".5" y1="1.433" y2="-1.44" xlink:href="#linear-gradient"/>
        <linearGradient id="linear-gradient-3" x1="35.894" x2="72.716" y1="13.248" y2="13.248" gradientUnits="objectBoundingBox">
            <stop offset="0" stop-color="#00a1ed"/>
            <stop offset="1" stop-color="#0055a5"/>
        </linearGradient>
        <linearGradient id="linear-gradient-4" x1="16.108" x2="33.816" y1="36.618" y2="36.618" gradientUnits="objectBoundingBox">
            <stop offset="0" stop-color="#7dd2f7"/>
            <stop offset=".997" stop-color="#009cdc"/>
        </linearGradient>
        <linearGradient id="linear-gradient-5" x1=".234" x2=".898" y1="-.715" y2="1.699" gradientUnits="objectBoundingBox">
            <stop offset="0" stop-color="#008dcf"/>
            <stop offset="1" stop-color="#520029"/>
        </linearGradient>
        <linearGradient id="linear-gradient-6" x1="8958.344" x2="9713.38" y1="3472.233" y2="3472.233" gradientUnits="objectBoundingBox">
            <stop offset="0" stop-color="#8bd7f8"/>
            <stop offset=".004" stop-color="#8ad6f7"/>
            <stop offset=".244" stop-color="#59c9f5"/>
            <stop offset=".47" stop-color="#32bef3"/>
            <stop offset=".678" stop-color="#16b7f2"/>
            <stop offset=".86" stop-color="#05b2f1"/>
            <stop offset=".997" stop-color="#00b1f1"/>
        </linearGradient>
        <linearGradient id="linear-gradient-7" x1="1.194" x2=".066" y1="1.316" y2="-.448" xlink:href="#linear-gradient-4"/>
        <linearGradient id="linear-gradient-8" x1="157.373" x2="170.867" y1="376.66" y2="376.66" xlink:href="#linear-gradient-6"/>
        <linearGradient id="linear-gradient-9" x1="19860.791" x2="21550.15" y1="24019.377" y2="24019.377" xlink:href="#linear-gradient-6"/>
        <linearGradient id="linear-gradient-10" x1=".642" x2=".27" y1="-.232" y2="1.128" gradientUnits="objectBoundingBox">
            <stop offset="0" stop-color="#00a1ed"/>
            <stop offset="1" stop-color="#520029"/>
        </linearGradient>
        <linearGradient id="linear-gradient-11" x1="43.476" x2="87.977" y1="13.238" y2="13.238" gradientUnits="objectBoundingBox">
            <stop offset="0" stop-color="#00a1ed"/>
            <stop offset="1" stop-color="#0073a8"/>
        </linearGradient>
        <linearGradient id="linear-gradient-12" x1="74.586" x2="80.936" y1="19.926" y2="19.926" gradientUnits="objectBoundingBox">
            <stop offset="0" stop-color="#fff"/>
            <stop offset=".997" stop-color="#009cdc"/>
        </linearGradient>
        <linearGradient id="linear-gradient-13" x1="4478.269" x2="7501.243" y1="2277.857" y2="2277.857" gradientUnits="objectBoundingBox">
            <stop offset="0" stop-color="#ffa10f"/>
            <stop offset="1" stop-color="#bb3112"/>
        </linearGradient>
        <linearGradient id="linear-gradient-14" x1="2794.321" x2="5679.991" y1="1390.975" y2="1390.975" xlink:href="#linear-gradient-11"/>
        <linearGradient id="linear-gradient-15" x1="4811.601" x2="5223.396" y1="2121.536" y2="2121.536" xlink:href="#linear-gradient-6"/>
        <linearGradient id="linear-gradient-16" x1="-.253" x2="1.223" y1="-.161" y2="1.37" gradientUnits="objectBoundingBox">
            <stop offset="0" stop-color="#63abdf"/>
            <stop offset=".048" stop-color="#55a1d8"/>
            <stop offset=".202" stop-color="#3086c7"/>
            <stop offset=".345" stop-color="#1672bb"/>
            <stop offset=".472" stop-color="#0566b3"/>
            <stop offset=".57" stop-color="#0062b1"/>
            <stop offset=".721" stop-color="#005eab"/>
            <stop offset="1" stop-color="#005ca6"/>
        </linearGradient>
    </defs>
    <g id="Logo_GML" data-name="Logo GML" transform="translate(-255.349 -206.074)">
        <path id="Path_135" d="M303.313 281.087c.074-.282.119-.436.119-.436s-.045.149-.119.436z" class="cls-1" data-name="Path 135" transform="translate(-30.396 -47.261)"/>
        <path id="Path_136" d="M330.681 350.72c6.516-5.519 2.892-15.5 1.753-18.184a62.991 62.991 0 0 0-1.753 18.184z" class="cls-1" data-name="Path 136" transform="translate(-47.683 -80.145)"/>
        <path id="Path_137" d="M314.041 368.508a19.989 19.989 0 0 0 3.423 3.269 19.989 19.989 0 0 1-3.423-3.269z" class="cls-1" data-name="Path 137" transform="translate(-37.195 -102.938)"/>
        <path id="Path_138" d="M300.362 282.352c-.895 3.487-4.769 20.894 3.956 31.53-8.725-10.636-4.851-28.043-3.956-31.53z" class="cls-1" data-name="Path 138" transform="translate(-27.493 -48.339)"/>
        <path id="Path_139" d="M334.448 212.136a62.9 62.9 0 0 0-8.873 13.542 60.7 60.7 0 0 0-4.044 10.52c-.047.17-.092.342-.138.513a21.654 21.654 0 0 1 2.815-5.766 21.405 21.405 0 0 1 4.967-5.066 28.816 28.816 0 0 1 9.087-4.321c.31-1 .656-1.982 1.046-2.926 1.886-4.559 4.762-8.331 9.087-10.232 0 0-15.588-8.139-23.985 6.047-.073.122-.143.25-.214.375.184-.073.369-.145.556-.215a47.869 47.869 0 0 1 9.696-2.471z" class="cls-2" data-name="Path 139" transform="translate(-41.854)"/>
        <path id="Path_140" d="M332.584 297.112c1.138 2.681 4.763 12.665-1.753 18.184.27-.084 12.834-4.083 11.868-18.75a94.423 94.423 0 0 1-.414-19.915 51.69 51.69 0 0 0-9.1 18.2q-.33 1.158-.601 2.281z" class="cls-3" data-name="Path 140" transform="translate(-47.834 -44.717)"/>
        <path id="Path_141" d="M321.841 324.112l.006.006a62.987 62.987 0 0 1 1.752-18.18c-.2-.477-.327-.724-.3-.672q-.446-.91-.848-1.8a55.94 55.94 0 0 1-4.144-12.905 46.083 46.083 0 0 0 3.534 33.551z" class="cls-4" data-name="Path 141" transform="translate(-38.851 -53.538)"/>
        <path id="Path_142" d="M368.832 244.562a39.524 39.524 0 0 0-4.771 1.053 43.644 43.644 0 0 0-1.078 4.268 59.738 59.738 0 0 0-.881 6.095 44.819 44.819 0 0 1 4.1-4.5 45.778 45.778 0 0 1 10.348-7.418 39.544 39.544 0 0 0-7.718.502z" class="cls-5" data-name="Path 142" transform="translate(-67.652 -24.059)"/>
        <path id="Path_143" d="M338.12 248.343a28.814 28.814 0 0 0-9.087 4.321 21.405 21.405 0 0 0-4.967 5.066 21.654 21.654 0 0 0-2.815 5.766c-.027.1-.056.2-.082.308a55.941 55.941 0 0 0 4.144 12.905q.4.89.848 1.8c-.026-.052.1.2.3.672q.271-1.123.6-2.276a51.692 51.692 0 0 1 9.1-18.2 59.762 59.762 0 0 1 .881-6.095 43.655 43.655 0 0 1 1.078-4.267z" class="cls-6" data-name="Path 143" transform="translate(-41.711 -26.787)"/>
        <path id="Path_144" d="M303.181 282.028l.048-.188c-.014.06-.029.12-.048.188z" class="cls-7" data-name="Path 144" transform="translate(-30.313 -48.015)"/>
        <path id="Path_145" d="M287.417 248.957l-.048.188c-.895 3.487-4.769 20.894 3.956 31.53l.022.027a19.986 19.986 0 0 0 3.422 3.269 21.185 21.185 0 0 0 2.7 1.734l.019.008v-.005c-10.11-10.258-3.807-32.656-3.807-32.656.084-.317.174-.627.268-.933q-.073-.4-.138-.784a43.99 43.99 0 0 1-.554-5.072c-.333-6.709 1.13-10.574 1.13-10.574a29.953 29.953 0 0 1 2.455-5.736c-13.567 5.356-17.536 15.779-18.614 22.772a32.36 32.36 0 0 1 4.07-2.389S278.28 278.7 297.473 285.7a21.185 21.185 0 0 1-2.7-1.734 19.986 19.986 0 0 1-3.422-3.269l-.022-.027c-8.725-10.636-4.851-28.043-3.956-31.53l.048-.188" class="cls-8" data-name="Path 145" transform="translate(-14.5 -15.132)"/>
        <path id="Path_146" d="M323.385 377.434a21.179 21.179 0 0 0 2.7 1.734 21.179 21.179 0 0 1-2.7-1.734z" class="cls-9" data-name="Path 146" transform="translate(-43.116 -108.595)"/>
        <path id="Path_147" d="M314 368.461l-.022-.027z" class="cls-10" data-name="Path 147" transform="translate(-37.157 -102.891)"/>
        <path id="Path_148" d="M319.175 241.617a43.991 43.991 0 0 0 .554 5.072q.065.388.138.784c.029-.093.059-.183.089-.275.046-.171.09-.343.138-.513a60.694 60.694 0 0 1 4.044-10.52 62.9 62.9 0 0 1 8.873-13.542 47.87 47.87 0 0 0-9.695 2.469c-.188.071-.372.143-.556.215a29.953 29.953 0 0 0-2.455 5.736s-1.463 3.864-1.13 10.574z" class="cls-11" data-name="Path 148" transform="translate(-40.417 -10.487)"/>
        <path id="Path_149" d="M317.062 291.4s-6.3 22.4 3.807 32.656a46.083 46.083 0 0 1-3.533-33.556c0-.011 0-.022-.006-.033-.094.306-.184.616-.268.933z" class="cls-12" data-name="Path 149" transform="translate(-37.879 -53.482)"/>
        <path id="Path_150" d="M317.062 291.4s-6.3 22.4 3.807 32.656a46.083 46.083 0 0 1-3.533-33.556c0-.011 0-.022-.006-.033-.094.306-.184.616-.268.933z" class="cls-13" data-name="Path 150" transform="translate(-37.879 -53.482)"/>
        <path id="Path_151" d="M321.157 290.024c.027-.1.055-.2.082-.308-.03.092-.06.182-.089.275.003.009.005.022.007.033z" class="cls-14" data-name="Path 151" transform="translate(-41.701 -53.006)"/>
        <path id="Path_152" d="M321.157 290.024c.027-.1.055-.2.082-.308-.03.092-.06.182-.089.275.003.009.005.022.007.033z" class="cls-15" data-name="Path 152" transform="translate(-41.701 -53.006)"/>
        <path id="Path_153" d="M321.157 290.024c.027-.1.055-.2.082-.308-.03.092-.06.182-.089.275.003.009.005.022.007.033z" class="cls-16" data-name="Path 153" transform="translate(-41.701 -53.006)"/>
        <path id="Path_154" d="M282.99 325.119a13.985 13.985 0 0 1-4.584-1.214c-4.993-2.159-12.581-8.145-14.944-24.729a27.2 27.2 0 0 1 .132-6.08q.058-.473.134-.97a22.546 22.546 0 0 0-4.53 4.086 17.083 17.083 0 0 0-2.6 17.27 13.613 13.613 0 0 0 .683 1.558c11.062 18.308 25.509 10.192 25.709 10.078zm-.781.023z" class="cls-17" data-name="Path 154" transform="translate(0 -54.533)"/>
        <path id="Path_155" d="M277.318 295.042c2.363 16.584 9.95 22.57 14.944 24.729a13.99 13.99 0 0 0 4.584 1.214l-.019-.011c-19.194-7.007-15.174-35.369-15.174-35.369a32.348 32.348 0 0 0-4.07 2.389q-.076.5-.134.97a27.2 27.2 0 0 0-.131 6.078z" class="cls-18" data-name="Path 155" transform="translate(-13.855 -50.399)"/>
    </g>
</svg>
